<svg id="Layer_1" data-name="Layer 1" xmlns="http://www.w3.org/2000/svg" viewBox="0 0 220.54 199.34"><defs><style>.cls-1{fill:#828282;}.cls-2{fill:#fff;}</style></defs><title>Untitled-11</title><path class="cls-1" d="M539.83,400.29H460.69a31.12,31.12,0,0,0-27,15.57l-39.57,68.53a31.13,31.13,0,0,0,0,31.13l39.57,68.54a31.14,31.14,0,0,0,27,15.57h79.14a31.14,31.14,0,0,0,27-15.57l39.57-68.54a31.13,31.13,0,0,0,0-31.13l-39.57-68.53A31.12,31.12,0,0,0,539.83,400.29Z" transform="translate(-389.99 -400.29)"/><circle class="cls-2" cx="111.98" cy="66.94" r="46.38"/><path class="cls-2" d="M500.26,512.61a78.68,78.68,0,0,0-75.37,56.14l8.84,15.31a31.14,31.14,0,0,0,27,15.57h79.14a31.14,31.14,0,0,0,27-15.57l8.84-15.31A78.68,78.68,0,0,0,500.26,512.61Z" transform="translate(-389.99 -400.29)"/></svg>