<svg id="Layer_1" data-name="Layer 1" xmlns="http://www.w3.org/2000/svg" xmlns:xlink="http://www.w3.org/1999/xlink" viewBox="0 0 87.79 126.72"><defs><style>.cls-1{fill:none;}.cls-2{fill:#e0f0ff;}.cls-3{fill:#cae7ff;}.cls-4{fill:#a3b6cc;}.cls-5{isolation:isolate;}.cls-6{clip-path:url(#clip-path);}.cls-7{fill:#75a1cc;}</style><clipPath id="clip-path" transform="translate(-456.36 -436.6)"><polygon id="SVGID" class="cls-1" points="464.95 536.4 465.11 477.35 490.24 491.85 490.07 550.9 464.95 536.4"/></clipPath></defs><title>boks2</title><polygon class="cls-2" points="0 25.34 43.9 50.69 87.79 25.34 43.9 0 0 25.34"/><polygon class="cls-3" points="43.9 50.69 43.9 126.72 87.79 101.37 87.79 25.34 43.9 50.69"/><polygon class="cls-4" points="43.9 50.69 0 25.34 0 101.37 43.9 126.72 43.9 50.69"/><g class="cls-5"><g class="cls-6"><path class="cls-7" d="M480.9,486.46l-2.42,0,3.8,11.25c3.56,26.27-10.21,34.74-17.07,37.3-.45.16-.41,1.36.85,2.08a3.89,3.89,0,0,0,1,.4c31.06,6.59,23.82-23.07,17.57-39.71h0l-3.77-11.27" transform="translate(-456.36 -436.6)"/></g></g></svg>