<svg id="Layer_1" data-name="Layer 1" xmlns="http://www.w3.org/2000/svg" xmlns:xlink="http://www.w3.org/1999/xlink" viewBox="0 0 87.79 126.72"><defs><style>.cls-1{fill:none;}.cls-2{fill:#e0ffe3;}.cls-3{fill:#c7ffcc;}.cls-4{fill:#a3cca7;}.cls-5{isolation:isolate;}.cls-6{clip-path:url(#clip-path);}.cls-7{fill:#6ecc75;}</style><clipPath id="clip-path" transform="translate(-456.36 -436.6)"><polygon id="SVGID" class="cls-1" points="464.27 530.01 464.41 480.76 489.52 495.25 489.38 544.5 464.27 530.01"/></clipPath></defs><title>boks3</title><polygon class="cls-2" points="0 25.34 43.9 50.69 87.79 25.34 43.9 0 0 25.34"/><polygon class="cls-3" points="43.9 50.69 43.9 126.72 87.79 101.37 87.79 25.34 43.9 50.69"/><polygon class="cls-4" points="43.9 50.69 0 25.34 0 101.37 43.9 126.72 43.9 50.69"/><g class="cls-5"><g class="cls-6"><path class="cls-7" d="M480.52,490.06a.51.51,0,0,0-.69,0,13.81,13.81,0,0,0-3.25,6.78,6.84,6.84,0,0,0-2.72-.82,4.16,4.16,0,0,0-1.33.11,2.19,2.19,0,0,0-1.87,2.19,19.85,19.85,0,0,1-3.1,10.74,10.56,10.56,0,0,1-1.4,1.7,5.39,5.39,0,0,0-1.37,1.67,9.16,9.16,0,0,0-.44,4.06,26.33,26.33,0,0,0,3.3,10.82,27.07,27.07,0,0,0,8.07,9.22c.37.25.74.48,1.11.7,3.1,1.78,6.13,2.19,8.43,1.13,2.58-1.19,4.4-4.47,4.16-8.67a13.74,13.74,0,0,0-.82-3.81c-.07-.21-.15-.41-.23-.6-.48-1.17-1.12-2.27-1.64-3.43s-1-2.33-1.4-3.5a39.13,39.13,0,0,1-1.73-6.92,32.89,32.89,0,0,1-.35-3.47,13.1,13.1,0,0,0-.17-3.44,14.29,14.29,0,0,0-4.85-6.61,13,13,0,0,1,3-6c.25-.29.14-.94-.24-1.44a1.4,1.4,0,0,0-.44-.41" transform="translate(-456.36 -436.6)"/></g></g></svg>