<svg id="Layer_1" data-name="Layer 1" xmlns="http://www.w3.org/2000/svg" xmlns:xlink="http://www.w3.org/1999/xlink" viewBox="0 0 87.79 126.72"><defs><style>.cls-1{fill:none;}.cls-2{fill:#ffe0f5;}.cls-3{fill:#ffc5ec;}.cls-4{fill:#cca3be;}.cls-5{isolation:isolate;}.cls-6{clip-path:url(#clip-path);}.cls-7{fill:#cc76b2;}</style><clipPath id="clip-path" transform="translate(-456.36 -436.6)"><polygon id="SVGID" class="cls-1" points="462.6 520.64 462.71 482.57 492.34 499.67 492.23 537.75 462.6 520.64"/></clipPath></defs><title>boks1</title><polygon class="cls-2" points="0 25.34 43.9 50.69 87.79 25.34 43.9 0 0 25.34"/><polygon class="cls-3" points="43.9 50.69 43.9 126.72 87.79 101.37 87.79 25.34 43.9 50.69"/><polygon class="cls-4" points="43.9 50.69 0 25.34 0 101.37 43.9 126.72 43.9 50.69"/><g class="cls-5"><g class="cls-6"><path class="cls-7" d="M467.19,485.15l.38,2.25A27.41,27.41,0,0,0,473.79,500a28.61,28.61,0,0,0-2.62-2,4,4,0,0,0-2.73-.55A5.2,5.2,0,0,0,467,498c-2.69,1.38-4.35,4.46-4.37,8.93A28.15,28.15,0,0,0,467,520.82c.44.75.92,1.48,1.42,2.19a9.11,9.11,0,0,0,2.78,2.54c2,1.16,4.11,1.27,6.14,2.26a20.14,20.14,0,0,1,2.07,1.46,29.37,29.37,0,0,0,4.35,3.56,3.87,3.87,0,0,0,2.76.63,6.81,6.81,0,0,0,1.43-.54c2.69-1.38,4.36-4.47,4.37-8.93A28.12,28.12,0,0,0,488,510c-.44-.74-.92-1.47-1.42-2.18a8.8,8.8,0,0,0-3-2.84,30.72,30.72,0,0,0-5.05-1.89c-.4-2.35-.72-6.31,1.22-8.18.38-.36.28-1.25-.23-2a2.08,2.08,0,0,0-.68-.65.73.73,0,0,0-.92,0c-1.64,1.57-2,4.19-2,6.61a23.68,23.68,0,0,0-.95-3.41,20.64,20.64,0,0,0-6-8.89l-1.76-1.48" transform="translate(-456.36 -436.6)"/></g></g></svg>