<svg id="Layer_1" data-name="Layer 1" xmlns="http://www.w3.org/2000/svg" viewBox="0 0 220.54 199.34"><defs><style>.cls-1{fill:#828282;}</style></defs><title>gear</title><path class="cls-1" d="M500.36,476.63a23.37,23.37,0,1,0,16.23,40l.21-.21A22.64,22.64,0,0,0,523.65,500,23.31,23.31,0,0,0,500.36,476.63Z" transform="translate(-389.8 -400.29)"/><path class="cls-1" d="M606.17,484.39,566.6,415.86a31.12,31.12,0,0,0-27-15.57H460.5a31.12,31.12,0,0,0-27,15.57L394,484.39a31.13,31.13,0,0,0,0,31.13l39.57,68.54a31.14,31.14,0,0,0,27,15.57h79.14a31.14,31.14,0,0,0,27-15.57l39.57-68.54A31.13,31.13,0,0,0,606.17,484.39Zm-36.11,5.68v20a2.89,2.89,0,0,1-.76,2,2.93,2.93,0,0,1-1.79,1.26l-16.74,2.54a70.72,70.72,0,0,1-3.55,8.37c2,3,5.32,7.1,9.64,12.43a4.58,4.58,0,0,1,1,2.28,2.87,2.87,0,0,1-.76,2,79.37,79.37,0,0,1-8.88,9.89c-4.29,4.32-7.08,6.32-8.6,6.32a4,4,0,0,1-2.29-.76l-12.42-9.89a82,82,0,0,1-8.37,3.55c-1,8.12-1.79,14-2.54,17a3,3,0,0,1-3.29,2.54H490.17a4.13,4.13,0,0,1-2.27-.75,2.28,2.28,0,0,1-1-2l-2.54-16.74a61.37,61.37,0,0,1-8.12-3.3l-12.68,9.64a3.4,3.4,0,0,1-4.56-.26A111.42,111.42,0,0,1,444,541a3.1,3.1,0,0,1,0-4.06q1.53-1.9,4.57-6.09c2.28-2.79,3.79-4.82,4.81-6.34a84.42,84.42,0,0,1-3.79-8.87l-16.75-2.54a3.12,3.12,0,0,1-2-1,3.43,3.43,0,0,1-.76-2V489.82a3.72,3.72,0,0,1,2.55-3.3l17-2.53a39.58,39.58,0,0,1,3.55-8.37c-2.54-3.55-5.58-7.61-9.64-12.43a4.58,4.58,0,0,1-1-2.28,4.13,4.13,0,0,1,.76-2,81,81,0,0,1,8.88-9.64c4.31-4.31,7.35-6.59,8.62-6.59a3.08,3.08,0,0,1,2.28,1l12.43,9.64a83.34,83.34,0,0,1,8.37-3.55c1-8.12,1.78-13.95,2.53-17a3.05,3.05,0,0,1,3.28-2.53h20.79a4,4,0,0,1,2.28.76,2.29,2.29,0,0,1,1,2l2.53,16.74a59,59,0,0,1,8.12,3.3l12.93-9.64a3.41,3.41,0,0,1,4.57.26,122.88,122.88,0,0,1,15,15.47,3.09,3.09,0,0,1,0,4.05q-1.53,1.91-4.57,6.09c-2.28,2.79-3.79,4.82-4.81,6.34a86.75,86.75,0,0,1,3.79,8.88L568,487a3.12,3.12,0,0,1,2,1C569.8,488.55,570.06,489.31,570.06,490.07Z" transform="translate(-389.8 -400.29)"/></svg>