<svg id="Layer_1" data-name="Layer 1" xmlns="http://www.w3.org/2000/svg" viewBox="0 0 285.32 494.19"><defs><style>.cls-1{fill:#a3b6cc;}.cls-2{fill:#bea3cc;}.cls-3{fill:#cccba3;}.cls-4{fill:#a3cca7;}.cls-5{fill:#cea3a3;}.cls-6{fill:#cca3be;}.cls-7{fill:#c7ffcc;}.cls-8{fill:#cae7ff;}.cls-9{fill:#fffdc7;}.cls-10{fill:#ecc7ff;}.cls-11{fill:#ffc5ec;}.cls-12{fill:#ffc5c5;}.cls-13{fill:#ffffe0;}.cls-14{fill:#e0ffe3;}.cls-15{fill:#f5e0ff;}.cls-16{fill:#e0f0ff;}.cls-17{fill:#ffe0f5;}.cls-18{fill:#dbeeff;}.cls-19{fill:#efd4ff;}.cls-20{fill:#ffe0e0;}</style></defs><title>kasser</title><polygon class="cls-1" points="65.84 139.39 65.84 291.45 43.89 278.77 0 253.43 0 101.37 65.84 139.39"/><polygon class="cls-2" points="87.8 253.43 87.8 253.43 87.79 304.12 65.84 291.45 65.84 240.76 87.8 253.43"/><polygon class="cls-3" points="43.89 278.77 43.89 354.81 0 329.61 0 253.43 43.89 278.77"/><polygon class="cls-4" points="87.8 405.49 65.84 392.82 0 354.8 0 329.61 43.89 354.81 87.79 380.15 87.79 380.15 87.8 405.49"/><polygon class="cls-5" points="65.84 392.82 65.84 468.85 0 430.83 0 354.8 65.84 392.82"/><polygon class="cls-6" points="109.74 468.85 109.74 494.19 65.84 468.85 65.84 443.51 109.74 468.85"/><polygon class="cls-7" points="285.32 63.36 285.32 114.04 241.43 139.39 241.43 88.7 285.32 63.36"/><polygon class="cls-8" points="285.32 114.04 285.32 240.76 241.43 266.1 241.43 139.39 285.32 114.04"/><polygon class="cls-9" points="241.43 164.73 241.43 190.07 197.53 215.42 197.53 190.07 241.43 164.73"/><polygon class="cls-10" points="285.32 240.76 285.32 291.43 263.37 304.11 219.48 329.46 219.51 278.8 241.43 266.1 285.32 240.76"/><polygon class="cls-7" points="285.32 291.43 285.32 392.82 263.37 405.49 263.37 304.11 285.32 291.43"/><polygon class="cls-9" points="263.37 329.44 263.37 405.49 219.45 430.85 219.51 405.51 219.35 354.73 263.37 329.44"/><polygon class="cls-11" points="197.53 443.51 109.74 494.19 109.74 468.85 197.53 418.19 197.53 443.51"/><polygon class="cls-12" points="219.51 405.51 219.45 430.85 197.53 443.51 197.53 418.19 219.51 405.51"/><polygon class="cls-13" points="263.37 50.69 219.47 76.03 197.53 63.36 153.63 38.02 131.62 25.38 175.58 0 263.37 50.69"/><polygon class="cls-14" points="285.32 63.36 241.43 88.7 219.47 76.03 263.37 50.69 285.32 63.36"/><polygon class="cls-14" points="153.63 38.02 131.69 50.69 109.74 38.02 131.62 25.38 153.63 38.02"/><polygon class="cls-15" points="131.69 50.69 87.8 76.03 43.83 101.33 21.95 88.7 109.74 38.02 131.69 50.69"/><polygon class="cls-16" points="87.79 126.71 65.84 139.39 0 101.37 21.95 88.7 43.83 101.33 87.79 126.71"/><polygon class="cls-17" points="131.69 101.37 87.8 126.71 87.79 126.71 43.83 101.33 87.8 76.03 131.69 101.37"/><polygon class="cls-18" points="197.53 63.36 153.63 88.7 131.69 101.37 87.8 76.03 131.69 50.69 153.63 38.02 197.53 63.36"/><polygon class="cls-5" points="87.79 380.15 43.89 354.81 43.89 278.77 65.84 291.45 87.79 304.12 87.79 380.15"/><polygon class="cls-1" points="109.74 418.16 109.74 468.85 65.84 443.51 65.84 392.82 87.8 405.49 109.74 418.16"/><polygon class="cls-8" points="219.51 405.51 197.53 418.19 109.74 468.85 109.74 418.16 153.63 392.82 219.35 354.73 219.51 405.51"/><polygon class="cls-3" points="109.74 266.09 109.74 418.16 87.8 405.49 87.79 380.15 87.79 380.15 87.79 304.12 87.8 253.43 109.74 266.09"/><polygon class="cls-11" points="241.43 190.07 241.43 240.84 197.46 266.18 153.63 291.44 153.63 240.76 197.53 215.42 241.43 190.07"/><polygon class="cls-12" points="241.43 240.84 241.43 266.1 219.51 278.8 197.56 291.43 197.46 266.18 241.43 240.84"/><polygon class="cls-8" points="219.51 278.8 219.48 329.46 197.46 342.17 197.56 291.43 219.51 278.8"/><polygon class="cls-9" points="153.63 240.76 153.63 291.45 153.63 367.48 153.63 392.82 109.74 418.16 109.74 266.09 153.63 240.76"/><polygon class="cls-12" points="263.37 304.11 263.37 329.44 219.35 354.73 153.63 392.82 153.63 367.48 197.46 342.17 219.48 329.46 263.37 304.11"/><polygon class="cls-7" points="197.56 291.43 197.46 342.17 153.63 367.48 153.63 291.45 153.63 291.44 197.46 266.18 197.56 291.43"/><polygon class="cls-4" points="241.43 88.7 241.43 139.39 219.44 126.74 219.47 76.03 241.43 88.7"/><polygon class="cls-13" points="241.43 164.73 219.48 152.06 175.6 177.39 197.53 190.07 241.43 164.73"/><polygon class="cls-1" points="241.43 139.39 241.43 164.73 219.48 152.06 219.44 126.74 241.43 139.39"/><polygon class="cls-8" points="197.53 63.36 197.53 114.04 153.63 88.7 197.53 63.36"/><polygon class="cls-3" points="219.48 152.06 197.53 139.35 197.53 114.04 197.53 63.36 219.47 76.03 219.44 126.74 219.48 152.06"/><polygon class="cls-8" points="87.8 126.71 87.76 228.07 65.84 240.76 65.84 139.39 87.8 126.71"/><polygon class="cls-19" points="87.8 253.43 131.62 228.13 109.71 215.4 65.84 240.76 87.8 253.43"/><polygon class="cls-13" points="153.63 240.76 131.62 228.13 87.8 253.43 109.74 266.09 153.63 240.76"/><polygon class="cls-3" points="197.53 190.07 175.6 177.39 175.6 202.75 197.53 215.42 197.53 190.07"/><polygon class="cls-17" points="153.63 240.76 109.71 215.4 175.6 177.39 175.6 202.75 197.53 215.42 153.63 240.76"/><polygon class="cls-11" points="87.8 126.71 87.76 228.13 131.62 202.76 131.69 101.37 87.8 126.71"/><polygon class="cls-8" points="131.69 101.37 197.53 63.36 197.53 164.66 131.62 202.75 131.69 101.37"/><polygon class="cls-19" points="197.53 139.35 219.48 152.06 175.6 177.39 153.6 164.75 197.53 139.35"/><polygon class="cls-2" points="175.6 177.39 153.6 164.75 153.63 190.02 175.6 202.75 175.6 177.39"/><polygon class="cls-2" points="175.6 177.39 175.6 202.75 153.55 190.07 153.6 164.75 175.6 177.39"/><polygon class="cls-20" points="197.53 114.04 109.74 164.73 65.84 139.39 87.79 126.71 87.8 126.71 131.69 101.37 153.63 88.7 197.53 114.04"/><polygon class="cls-5" points="109.74 164.73 109.74 266.09 87.8 253.43 87.8 253.43 65.84 240.76 65.84 139.39 109.74 164.73"/><polygon class="cls-12" points="197.53 164.73 197.53 215.42 153.63 240.76 109.74 266.09 109.74 164.73 197.53 114.04 197.53 139.35 197.53 164.73"/></svg>