<svg id="Layer_1" data-name="Layer 1" xmlns="http://www.w3.org/2000/svg" viewBox="0 0 164.7 146.36"><defs><style>.cls-1{fill:#515864;}</style></defs><title>knap-ydre</title><path class="cls-1" d="M530,431.78a17.89,17.89,0,0,1,15.46,8.93L574.55,491a17.91,17.91,0,0,1,0,17.86l-29.06,50.32A17.89,17.89,0,0,1,530,568.14H469.14a17.91,17.91,0,0,1-15.46-8.93l-29.05-50.32a17.91,17.91,0,0,1,0-17.86l29.05-50.32a17.91,17.91,0,0,1,15.46-8.93H530m0-5H469.14a22.86,22.86,0,0,0-19.79,11.43L420.3,488.53a22.83,22.83,0,0,0,0,22.86l29.05,50.32a22.86,22.86,0,0,0,19.79,11.43H530a22.85,22.85,0,0,0,19.79-11.43l29.06-50.32a22.88,22.88,0,0,0,0-22.86l-29.06-50.32A22.85,22.85,0,0,0,530,426.78Z" transform="translate(-417.24 -426.78)"/></svg>